Coordinates
version=1
nRows=16
nColumns=40
inDegrees=yes

Units are S.I. units (second, meters, Newtons, ...)
Angles are in degrees.

endheader
time	pelvis_tilt	pelvis_list	pelvis_rotation	pelvis_tx	pelvis_ty	pelvis_tz	hip_flexion_r	hip_adduction_r	hip_rotation_r	knee_angle_r	knee_angle_r_beta	ankle_angle_r	subtalar_angle_r	mtp_angle_r	hip_flexion_l	hip_adduction_l	hip_rotation_l	knee_angle_l	knee_angle_l_beta	ankle_angle_l	subtalar_angle_l	mtp_angle_l	lumbar_extension	lumbar_bending	lumbar_rotation	arm_flex_r	arm_add_r	arm_rot_r	elbow_flex_r	pro_sup_r	wrist_flex_r	wrist_dev_r	arm_flex_l	arm_add_l	arm_rot_l	elbow_flex_l	pro_sup_l	wrist_flex_l	wrist_dev_l
      7.98750000	     -2.69582071	     -3.38897958	     -0.34332014	      0.83345204	      0.93553399	      0.41933284	     30.69970136	     -5.98401175	     -9.40053838	     50.64427963	     50.64427963	      4.94066129	    -15.62771966	      4.00230081	      8.01709576	     -1.82400275	    -10.34900645	     16.42645319	     16.42645319	     14.05586110	     -6.78388959	     -3.54722843	     -9.08019425	      3.77887985	      2.00411418	      0.21707196	    -13.23175816	     -1.56768951	     23.37555242	     46.95799067	      0.00000000	      0.00000000	     15.05827914	    -12.55230382	      0.07708663	     58.64629145	     46.70682417	      0.00000000	      0.00000000
      7.99957143	     -2.63914896	     -3.40903158	     -0.53382508	      0.83330756	      0.93554151	      0.41929522	     30.58330998	     -5.73318233	     -9.60047141	     47.52599919	     47.52599919	      4.94858689	    -14.79151508	      3.96103147	      7.09762745	     -1.81516404	    -10.71509295	     15.81454370	     15.81454370	     14.35144931	     -6.22955493	     -3.77939148	     -9.14812849	      3.81393291	      2.18638454	     -1.64493868	    -13.72314308	     -1.83107351	     22.69090321	     46.99139038	      0.00000000	      0.00000000	     15.34479530	    -12.39850285	     -0.57833882	     60.30717508	     46.78542143	      0.00000000	      0.00000000
      8.01164286	     -2.66814235	     -3.34474920	     -0.72764353	      0.83316857	      0.93510293	      0.41944085	     30.47292652	     -5.53510605	     -9.80525701	     44.23121473	     44.23121473	      4.41786213	    -14.10216031	      2.18259916	      6.35274988	     -1.78470609	    -11.35100305	     15.36265554	     15.36265554	     14.58379994	     -5.34369516	     -4.69043936	     -9.22061106	      3.71641740	      1.59024310	     -3.25211201	    -13.96788154	     -3.18869476	     22.89676706	     47.07656106	      0.00000000	      0.00000000	     14.40034320	    -12.54549173	     -3.04866792	     64.09844089	     47.03516321	      0.00000000	      0.00000000
      8.02371429	     -2.74680523	     -3.27647635	     -0.91831202	      0.83307240	      0.93462944	      0.41964787	     30.36348055	     -5.32456904	    -10.07227879	     40.91843493	     40.91843493	      4.32702440	    -12.97464737	      1.81803311	      5.58929867	     -1.66275866	    -11.63548888	     14.75345150	     14.75345150	     14.78141446	     -5.01436167	     -4.91165902	     -9.12488500	      3.64363127	      1.59848491	     -5.00487984	    -14.35185854	     -3.66641845	     22.35726517	     47.11911548	      0.00000000	      0.00000000	     14.61045444	    -12.43536389	     -3.83668613	     65.36809759	     47.11902421	      0.00000000	      0.00000000
      8.03578571	     -2.81839976	     -3.27533296	     -1.10569953	      0.83298874	      0.93403483	      0.42001019	     30.15080048	     -4.99406583	    -10.40188248	     37.51034135	     37.51034135	      4.31696630	    -11.68294176	      1.94923450	      4.90051932	     -1.62830116	    -11.83047400	     14.31588877	     14.31588877	     15.09772840	     -4.76662605	     -5.14289249	     -9.03741777	      3.66104568	      1.51747667	     -6.65080389	    -14.72679454	     -3.92566425	     21.98484272	     47.13898681	      0.00000000	      0.00000000	     14.79065433	    -12.52889003	     -4.36303330	     66.34456077	     47.17439941	      0.00000000	      0.00000000
      8.04785714	     -2.86606726	     -3.13308475	     -1.34438628	      0.83313035	      0.93329066	      0.42058708	     29.88190574	     -4.80477108	    -10.80267827	     34.16953251	     34.16953251	      4.16154842	    -10.07900973	      1.45707557	      4.04883915	     -1.45779285	    -12.32162387	     13.64170370	     13.64170370	     15.25222821	     -4.16474823	     -5.75899898	     -9.01404689	      3.48095560	      1.45035646	     -8.50031742	    -14.99200054	     -4.76143670	     22.44131158	     47.16278415	      0.00000000	      0.00000000	     14.52850963	    -12.43574204	     -5.74535136	     68.46159093	     47.31153157	      0.00000000	      0.00000000
      8.05992857	     -2.91089556	     -3.12325673	     -1.55621239	      0.83330078	      0.93250547	      0.42129296	     29.51356224	     -4.39264520	    -11.19933516	     30.81190840	     30.81190840	      4.00121635	     -8.60441629	      1.79766834	      3.32173760	     -1.42488030	    -12.52139283	     13.22617350	     13.22617350	     15.53989953	     -4.00201497	     -6.03344060	     -8.94006530	      3.47697508	      1.36424851	    -10.00240519	    -15.30181100	     -5.08522599	     22.23914405	     47.18048348	      0.00000000	      0.00000000	     14.58297063	    -12.53849205	     -6.29803322	     69.32006548	     47.36844568	      0.00000000	      0.00000000
      8.07200000	     -2.94581670	     -3.02282296	     -1.79740363	      0.83365739	      0.93157802	      0.42217574	     29.13576630	     -4.07066991	    -11.67788633	     27.67620371	     27.67620371	      3.85344027	     -6.91218601	      2.21932464	      2.50921777	     -1.29202858	    -12.83143534	     12.68662685	     12.68662685	     15.77600435	     -3.68498452	     -6.36581889	     -8.87348897	      3.35263483	      1.36517431	    -11.53122628	    -15.53935960	     -5.47949941	     22.23394202	     47.19415207	      0.00000000	      0.00000000	     14.54236787	    -12.57079452	     -6.97169541	     70.35609990	     47.43621273	      0.00000000	      0.00000000
      8.08407143	     -2.96229388	     -2.92688482	     -2.04780316	      0.83417666	      0.93056930	      0.42319650	     28.73111368	     -3.72848472	    -12.22715092	     24.78103329	     24.78103329	      3.57336800	     -5.21111577	      2.85735498	      1.67207430	     -1.16792743	    -13.13038417	     12.16697624	     12.16697624	     16.02682037	     -3.38173547	     -6.71485692	     -8.82068860	      3.23932587	      1.33804495	    -12.98487172	    -15.74975856	     -5.89310098	     22.32363951	     47.20571662	      0.00000000	      0.00000000	     14.42155343	    -12.60295870	     -7.63750990	     71.30969139	     47.50117659	      0.00000000	      0.00000000
      8.09614286	     -3.01114702	     -2.79098621	     -2.29680513	      0.83474664	      0.92936822	      0.42436856	     28.40794876	     -3.40851650	    -12.73125581	     22.25963706	     22.25963706	      3.24908909	     -3.69233866	      3.60668274	      0.90899989	     -1.00692389	    -13.42473643	     11.71094722	     11.71094722	     16.28043596	     -3.13403189	     -7.02018888	     -8.69100544	      3.08995295	      1.31286086	    -14.27855239	    -15.86945875	     -6.26148847	     22.42332584	     47.21464911	      0.00000000	      0.00000000	     14.27423722	    -12.69198865	     -8.22762624	     72.06953364	     47.55622473	      0.00000000	      0.00000000
      8.10821429	     -2.94171687	     -2.71528647	     -2.53690384	      0.83558428	      0.92826382	      0.42573531	     27.96921899	     -3.05250342	    -13.32685799	     20.14545529	     20.14545529	      2.91095017	     -2.13201491	      4.50000495	     -0.01343894	     -0.91876927	    -13.69404157	     11.24301842	     11.24301842	     16.54463045	     -2.81750513	     -7.34599873	     -8.70572302	      2.96428517	      1.28574879	    -15.52761114	    -15.99006130	     -6.72743470	     22.68287404	     47.22367532	      0.00000000	      0.00000000	     14.06664427	    -12.71561460	     -8.88667027	     72.85424726	     47.61556219	      0.00000000	      0.00000000
      8.12028571	     -3.04228225	     -2.45058322	     -2.75499081	      0.83638018	      0.92661245	      0.42716705	     27.98812037	     -2.89966853	    -13.55674010	     18.84765297	     18.84765297	      2.53488128	     -1.41052072	      5.03183564	     -0.57606551	     -0.65964622	    -13.88671497	     11.08699130	     11.08699130	     16.90899182	     -2.76694160	     -7.54866539	     -8.47472194	      2.64167234	      1.19593641	    -16.54595511	    -16.04201944	     -6.91408614	     22.57561572	     47.23130043	      0.00000000	      0.00000000	     13.89495512	    -13.02765357	     -9.24417682	     73.08448636	     47.64333828	      0.00000000	      0.00000000
      8.13235714	     -2.86160354	     -2.56002798	     -2.92780050	      0.83759241	      0.92569346	      0.42874847	     27.31000337	     -2.42238863	    -14.36281463	     17.33396452	     17.33396452	      2.15870206	      0.00705079	      5.97950200	     -1.64894996	     -0.78462016	    -14.14064545	     10.62034477	     10.62034477	     17.23426991	     -2.34694760	     -7.74154568	     -8.58476085	      2.79744819	      1.17483471	    -17.49940750	    -16.06649279	     -7.46808266	     23.01351905	     47.24140059	      0.00000000	      0.00000000	     13.60372506	    -12.89116914	     -9.88701983	     73.71516435	     47.69852023	      0.00000000	      0.00000000
      8.14442857	     -2.86192796	     -2.53980684	     -3.07061558	      0.83875597	      0.92430658	      0.43045373	     27.07362652	     -2.11022884	    -14.78679135	     16.61301226	     16.61301226	      1.83493578	      0.70437848	      6.58635006	     -2.36082681	     -0.82155249	    -14.32738187	     10.45322006	     10.45322006	     17.63715005	     -2.07467189	     -7.82161499	     -8.46818632	      2.75138174	      1.04670672	    -18.27946319	    -16.01924396	     -7.99445880	     23.34738935	     47.25491402	      0.00000000	      0.00000000	     13.27569095	    -12.93977923	    -10.42228298	     73.95539610	     47.74013159	      0.00000000	      0.00000000
      8.15650000	     -2.90119834	     -2.47372926	     -3.15011823	      0.83996782	      0.92276334	      0.43220785	     27.03383410	     -1.90833861	    -14.93457768	     16.52899631	     16.52899631	      1.54514035	      0.79268766	      6.72710428	     -2.91264495	     -0.83668085	    -14.33606316	     10.49060621	     10.49060621	     18.04060637	     -2.08293643	     -7.91406899	     -8.28110999	      2.69717893	      0.96135804	    -18.83408448	    -15.91774276	     -8.10115594	     23.25075616	     47.26047549	      0.00000000	      0.00000000	     12.97918080	    -13.12911594	    -10.59604254	     73.87207948	     47.74944739	      0.00000000	      0.00000000
      8.16857143	     -2.85885406	     -2.58152724	     -3.18607888	      0.84147209	      0.92153774	      0.43416884	     26.64134663	     -1.51185569	    -15.08435216	     16.29412686	     16.29412686	      0.90083743	      0.74500657	      5.75518474	     -3.41297535	     -1.18949882	    -14.93784000	     10.99877964	     10.99877964	     19.51434426	     -0.78388576	     -6.05883079	     -8.20887370	      2.85227878	      0.98678644	    -19.48312808	    -15.43267339	    -11.76765272	     24.06526680	     47.42055640	      0.00000000	      0.00000000	     12.81635915	    -12.99500371	    -11.10960505	     73.55583834	     47.79235469	      0.00000000	      0.00000000
